<svg width="300" height="283" viewBox="0 0 300 283" fill="none" xmlns="http://www.w3.org/2000/svg">
<mask id="mask0_107_2" style="mask-type:luminance" maskUnits="userSpaceOnUse" x="0" y="0" width="300" height="283">
<rect width="300" height="282.857" rx="30" fill="white"/>
</mask>
<g mask="url(#mask0_107_2)">
<path fill-rule="evenodd" clip-rule="evenodd" d="M299.936 141.397L159.098 282.793V282.793C81.3148 282.793 18.2593 219.488 18.2593 141.397C18.2593 63.3054 81.3148 0 159.098 0C236.881 0 299.936 63.3054 299.936 141.397C299.936 219.488 299.936 141.397 299.936 141.397Z" fill="#368ECA" fill-opacity="0.59"/>
<path d="M54.7773 64.6091C54.5858 64.0323 54.905 63.3913 55.4796 63.2631L67.4822 60.7634C68.1206 60.6352 68.6952 61.1479 68.6952 61.7889L66.7799 90.5682C66.7161 91.6578 65.2477 91.8501 64.8646 90.8886L54.7773 64.6091Z" fill="url(#paint0_linear_107_2)"/>
<path d="M77.6974 53.5839C77.7612 52.9429 78.3358 52.5583 78.9742 52.7506L90.7852 56.0195C91.4237 56.2118 91.6791 56.9169 91.3598 57.4938L76.4843 82.2349C75.9736 83.1323 74.569 82.6836 74.6967 81.594L77.6974 53.5839Z" fill="url(#paint1_linear_107_2)"/>
<path d="M92.1896 72.0438C92.5088 71.531 93.2111 71.4028 93.658 71.7874L99.2123 76.4023C99.7231 76.851 99.6592 77.6202 99.1485 78.0047L85.2307 87.7474C84.3368 88.3883 83.2515 87.3628 83.8261 86.4014L92.1896 72.0438Z" fill="url(#paint2_linear_107_2)"/>
<path d="M118.837 114.408C123.446 130.284 114.344 146.897 98.4828 151.557L42.6105 167.971C26.6745 172.653 9.96736 163.496 5.34134 147.543L1.97892 135.948C0.957425 132.423 2.93657 128.769 6.44796 127.744L103.043 99.3492C108.853 97.6827 114.918 101.016 116.642 106.848L118.837 114.408Z" fill="url(#paint3_linear_107_2)"/>
<path d="M1.91543 135.949L3.00077 139.73C1.97927 136.205 3.95842 132.551 7.4698 131.526L55.7992 117.361L104.129 103.195C104.384 103.131 104.576 103.067 104.767 103.003C108.118 102.227 110.72 103.791 112.068 106.144C112.6 107.072 113.654 107.691 114.68 107.389V107.389C115.693 107.091 116.286 106.016 115.819 105.069C113.498 100.362 108.105 97.8679 102.916 99.4137L6.38447 127.744C6.44831 127.744 6.44831 127.744 6.38447 127.744C2.87308 128.77 0.893937 132.423 1.91543 135.949Z" fill="#2E85C0"/>
<path d="M123.218 157.612C123.984 160.304 122.452 163.124 119.77 163.958L20.0468 193.25C17.3654 194.019 14.5563 192.48 13.7263 189.788L1.85143 148.959C1.08531 146.267 2.61755 143.447 5.29897 142.613L105.022 113.321C107.704 112.552 110.577 114.091 111.343 116.783L123.218 157.612Z" fill="url(#paint4_linear_107_2)"/>
<path d="M21.8343 229.208C22.8558 232.734 26.4949 234.721 30.0063 233.695L133.369 203.378C139.178 201.647 142.498 195.558 140.775 189.789L117.181 108.764C116.883 107.742 115.813 107.157 114.792 107.457V107.457C113.77 107.758 113.214 108.838 113.258 109.902C113.37 112.599 112.037 115.336 108.789 116.527C108.597 116.591 108.342 116.655 108.151 116.719L4.72428 146.973C1.27674 147.998 -0.766247 151.652 0.255247 155.177L21.8343 229.208Z" fill="#2E85C0"/>
<path d="M134.454 207.095L31.0917 237.477C27.5803 238.502 23.9412 236.515 22.9197 232.99L1.34068 158.959C0.319188 155.433 2.29833 151.78 5.80972 150.754L109.172 120.437C114.982 118.706 118.302 112.617 116.578 106.848L141.86 193.507C143.584 199.339 140.2 205.429 134.454 207.095Z" fill="url(#paint5_linear_107_2)"/>
<path d="M34.4116 198.827L14.684 204.596C12.1302 205.365 9.44881 203.891 8.68269 201.327V201.327C5.92913 191.829 11.3731 181.892 20.8601 179.099L28.0911 176.971C34.0285 175.24 40.349 178.701 42.0728 184.726C43.7965 190.751 40.4128 197.033 34.4116 198.827Z" fill="#1E79B7"/>
<path d="M2.10682 178.701L3.47664 183.428C3.84852 184.712 5.18987 185.451 6.47358 185.08V185.08C7.76237 184.708 8.50277 183.359 8.12449 182.072L7.0883 178.546C6.13722 175.31 1.96255 173.863 1.90432 177.235C1.89597 177.719 1.96082 178.212 2.10682 178.701Z" fill="#2E85C0"/>
<path fill-rule="evenodd" clip-rule="evenodd" d="M37.6895 186.427L32.1496 194.254V194.254C28.4641 194.878 24.9689 192.384 24.3429 188.685C23.7169 184.986 26.1972 181.481 29.8828 180.858C33.5683 180.234 37.0635 182.727 37.6895 186.427C38.3154 190.126 37.6895 186.427 37.6895 186.427Z" fill="white"/>
<path d="M263.162 103.067C263.162 103.003 263.162 103.003 263.162 102.938C263.162 102.81 263.162 102.682 263.162 102.49C262.974 95.0668 258.443 90.3641 256.079 88.4075C255.293 87.757 254.174 87.9081 253.486 88.6616V88.6616C252.924 89.2762 252.056 89.5068 251.264 89.2517L191.275 69.9289C184.06 67.6214 176.335 71.5954 174.037 78.8383L127.124 225.675C126.57 227.411 125.643 229.006 124.41 230.349V230.349C122.211 232.742 120.835 235.97 121.891 239.044C123.7 244.311 127.573 247.618 127.623 247.668C129.155 249.27 131.07 250.552 133.369 251.257L195.68 271.32C202.894 273.627 210.619 269.653 212.918 262.41L262.46 107.297C262.907 106.336 263.099 105.246 263.162 104.092C263.162 103.772 263.162 103.451 263.162 103.067Z" fill="#5D9FE7"/>
<path fill-rule="evenodd" clip-rule="evenodd" d="M220 67.1427L208.571 78.5713V78.5713C202.26 78.5713 197.143 73.4546 197.143 67.1427C197.143 60.8309 202.26 55.7142 208.571 55.7142C214.883 55.7142 220 60.8309 220 67.1427C220 73.4546 220 67.1427 220 67.1427Z" fill="url(#paint6_linear_107_2)"/>
<path d="M130.956 246.27C123.742 243.963 119.783 236.207 122.082 228.964L171.624 73.851C173.923 66.6081 181.648 62.6341 188.862 64.9416L251.173 85.0037C258.387 87.3112 262.346 95.0669 260.047 102.31L210.505 257.423C208.206 264.666 200.481 268.64 193.267 266.332L130.956 246.27Z" fill="url(#paint7_linear_107_2)"/>
<path d="M243.45 87.8551C242.064 87.4056 240.574 88.1593 240.115 89.5427V89.5427C239.349 91.8502 236.922 93.1321 234.56 92.4271L197.659 80.5693C195.36 79.8001 194.084 77.3644 194.786 74.9929V74.9929C195.243 73.6152 194.491 72.1286 193.11 71.681L187.508 69.8652C182.273 68.1987 176.654 71.083 174.931 76.3389L125.835 229.978C124.175 235.234 127.048 240.874 132.283 242.605L193.764 262.411C199 264.077 204.618 261.193 206.342 255.937L255.437 102.298C257.225 97.042 254.288 91.4015 249.053 89.6709L243.45 87.8551Z" fill="white"/>
<path d="M226.787 192.251C228.916 185.606 223.081 179.136 216.252 180.571L140.836 196.415C138.075 196.995 135.837 199.012 134.976 201.699V201.699C133.173 207.324 137.996 212.849 143.813 211.823L219.703 198.435C223.029 197.848 225.757 195.467 226.787 192.251V192.251Z" fill="#EDEFFF"/>
<path d="M157.288 131.885C152.314 147.435 165.56 162.736 181.662 160.04L227.616 152.345C235.33 151.053 241.676 145.559 244.058 138.109V138.109C248.708 123.566 236.688 109.112 221.54 111.032L175.317 116.893C166.903 117.96 159.871 123.807 157.288 131.885V131.885Z" fill="#EDEFFF"/>
<path d="M211.705 81.1458C211.258 81.0176 211.002 80.5048 211.13 80.0562C211.258 79.6075 211.769 79.3511 212.215 79.4793L223.133 83.0046C223.58 83.1328 223.835 83.6456 223.707 84.0942C223.58 84.5429 223.069 84.7993 222.622 84.6711L211.705 81.1458Z" fill="white"/>
<path fill-rule="evenodd" clip-rule="evenodd" d="M229.709 85.569L228.368 86.9151V86.9151C227.627 86.9151 227.027 86.3124 227.027 85.569C227.027 84.8257 227.627 84.223 228.368 84.223C229.108 84.223 229.709 84.8257 229.709 85.569C229.709 86.3124 229.709 85.569 229.709 85.569Z" fill="#F55978"/>
<mask id="mask1_107_2" style="mask-type:luminance" maskUnits="userSpaceOnUse" x="77" y="130" width="142" height="109">
<rect x="77.1429" y="130" width="141.429" height="108.571" rx="30" fill="white"/>
</mask>
<g mask="url(#mask1_107_2)">
<path fill-rule="evenodd" clip-rule="evenodd" d="M123.158 178.411C122.982 176.655 122.011 175.077 120.524 174.129L119.548 173.508C119.144 173.25 118.667 173.128 118.189 173.161V173.161C116.982 173.244 115.927 172.356 115.802 171.153L112.689 141.088C112.632 140.536 112.326 140.04 111.858 139.742L110.315 138.758C109.644 138.331 108.778 138.872 108.867 139.662V139.662C108.926 140.185 108.546 140.655 108.023 140.709L103.906 141.126C102.18 141.302 100.665 142.353 99.8974 143.908L81.5324 181.116C81.2496 181.689 81.1583 182.337 81.2719 182.966L81.577 184.655C81.6784 185.216 81.3351 185.762 80.7853 185.914V185.914C79.8644 186.168 79.6805 187.393 80.4862 187.907L81.8189 188.756C82.1623 188.975 82.5696 189.072 82.9746 189.03L98.2997 187.452C101.605 187.111 104.321 190.024 103.749 193.298L103.704 193.557C103.383 195.393 104.198 197.241 105.77 198.243V198.243C106.65 198.804 107.694 199.05 108.731 198.941L112.339 198.564C115.757 198.206 118.237 195.143 117.876 191.725L117.561 188.746C117.369 186.932 118.699 185.312 120.516 185.147V185.147C122.326 184.983 123.655 183.375 123.474 181.567L123.158 178.411ZM102.252 158.453C102.41 158.081 102.959 158.164 103.001 158.566L104.521 173.242C104.76 175.551 103.084 177.617 100.775 177.857L100.433 177.893C96.8726 178.264 94.2986 174.566 95.8832 171.356L102.252 158.453V158.453Z" fill="#1339B1"/>
<path fill-rule="evenodd" clip-rule="evenodd" d="M115.659 173.39C117.462 173.207 119.072 174.521 119.252 176.325L119.523 179.023C119.702 180.821 118.393 182.425 116.595 182.608V182.608C114.791 182.791 113.479 184.406 113.669 186.21L114.039 189.703C114.372 192.854 112.086 195.677 108.936 196.007V196.007C105.789 196.336 102.971 194.054 102.639 190.909L102.581 190.367C102.217 186.923 99.1328 184.425 95.6884 184.784L83.7503 186.03C80.7346 186.344 77.9899 184.271 77.4678 181.284V181.284C77.2567 180.076 77.4358 178.833 77.9792 177.733L95.3514 142.595C96.488 140.296 98.7249 138.741 101.276 138.477V138.477C105.381 138.052 109.052 141.038 109.473 145.143L112.067 170.463C112.252 172.263 113.86 173.573 115.659 173.39V173.39ZM96.811 175.352C99.1251 175.111 100.806 173.04 100.567 170.726L99.0464 155.993C99.0049 155.592 98.456 155.509 98.2978 155.88V155.88L91.9179 168.848C90.3369 172.062 92.9137 175.758 96.4758 175.387L96.811 175.352Z" fill="#7EBCFF"/>
<path fill-rule="evenodd" clip-rule="evenodd" d="M217.932 186.752C218.287 185.945 218.18 185.01 217.654 184.304L216.456 182.696C216.013 182.102 215.113 182.134 214.713 182.757V182.757C214.431 183.198 213.869 183.366 213.39 183.154L210.414 181.829C208.888 181.15 207.12 181.304 205.734 182.237L171.518 205.253C170.918 205.657 170.461 206.241 170.214 206.921L169.411 209.136C169.226 209.646 168.668 209.915 168.153 209.743V209.743C167.224 209.431 166.448 210.503 167.033 211.288L167.865 212.405C168.013 212.602 168.208 212.758 168.433 212.859L183.4 219.517C186.39 220.847 187.051 224.798 184.658 227.029L184.474 227.2C182.876 228.69 182.654 231.143 183.96 232.895V232.895C184.4 233.486 184.986 233.954 185.66 234.252L189.373 235.898C192.541 237.301 196.247 235.869 197.648 232.701L198.858 229.964C199.591 228.308 201.527 227.559 203.184 228.292V228.292C204.84 229.025 206.776 228.276 207.509 226.62L208.907 223.461C209.544 222.02 209.356 220.348 208.415 219.084L207.345 217.649C207.113 217.338 206.738 217.168 206.351 217.199V217.199C205.5 217.267 204.885 216.401 205.229 215.62L217.932 186.752ZM200.514 196.059C200.825 195.816 201.253 196.149 201.095 196.51L195.124 210.114C194.207 212.203 191.768 213.148 189.684 212.224L189.292 212.05C186.029 210.603 185.631 206.132 188.587 204.131L200.514 196.059V196.059Z" fill="#1339B1"/>
<path fill-rule="evenodd" clip-rule="evenodd" d="M203.972 215.902C205.629 216.635 206.378 218.573 205.645 220.23L204.543 222.721C203.81 224.377 201.874 225.125 200.218 224.393V224.393C198.562 223.66 196.625 224.409 195.893 226.065L194.464 229.296C193.183 232.191 189.797 233.5 186.902 232.217V232.217C184.01 230.936 182.703 227.553 183.982 224.66L184.205 224.156C185.606 220.988 184.178 217.284 181.013 215.875L170.015 210.982C167.256 209.755 165.909 206.609 166.924 203.765V203.765C167.339 202.602 168.115 201.603 169.139 200.915L201.496 179.149C203.633 177.711 206.359 177.473 208.713 178.517V178.517C212.486 180.192 214.192 184.605 212.526 188.382L202.298 211.578C201.567 213.235 202.317 215.17 203.972 215.902V215.902ZM186.718 208.192C188.803 209.116 191.242 208.17 192.158 206.082L198.129 192.478C198.288 192.117 197.859 191.784 197.549 192.027V192.027L185.621 200.099C182.665 202.1 183.063 206.571 186.326 208.018L186.718 208.192Z" fill="#7EBCFF"/>
<path fill-rule="evenodd" clip-rule="evenodd" d="M174.349 146.247C174.319 146.155 174.264 146.072 174.225 145.983L171.917 140.771C171.791 140.485 171.384 140.49 171.264 140.777V140.777C171.165 141.013 170.857 141.071 170.673 140.894C168.334 138.642 165.173 137.048 161.302 136.169C155.173 134.776 150.032 135.704 145.814 139.087C141.596 142.403 138.631 148.041 136.851 155.933L134.479 166.213C133.54 170.625 133.255 174.617 133.625 178.076C133.648 178.3 133.41 178.46 133.214 178.351V178.351C132.985 178.222 132.724 178.459 132.83 178.699L135.27 184.253C135.336 184.452 135.467 184.651 135.533 184.85C137.84 189.692 142.058 192.809 148.187 194.202C154.382 195.661 159.588 194.666 163.74 191.217C167.892 187.835 170.858 182.197 172.637 174.371L175.009 163.958C176.575 156.998 176.397 151.144 174.475 146.523C174.437 146.43 174.381 146.342 174.349 146.247V146.247ZM157.478 178.483C156.465 181.382 153.936 183.485 150.902 183.955V183.955C149.098 184.234 147.088 184.034 146.006 182.564C145.547 181.941 145.198 181.222 144.957 180.406C144.233 177.886 144.364 174.305 145.419 169.662L148.582 155.867C149.637 151.556 151.021 148.505 152.734 146.78C154.448 145.056 156.622 144.459 159.259 145.056C161.961 145.653 163.74 147.178 164.465 149.632C165.027 151.278 165.153 153.403 164.874 155.975C164.704 157.544 164.269 159.069 163.748 160.559L157.478 178.483Z" fill="#1339B1"/>
<path fill-rule="evenodd" clip-rule="evenodd" d="M161.368 185.858C157.216 189.241 152.009 190.236 145.814 188.843C139.685 187.45 135.467 184.333 133.161 179.491C130.854 174.65 130.525 168.482 132.172 160.855L134.479 150.375C136.258 142.483 139.29 136.845 143.442 133.529C147.66 130.213 152.8 129.218 158.929 130.611C165.058 132.004 169.276 135.121 171.583 139.963C173.889 144.738 174.219 150.972 172.571 158.6L170.264 169.012C168.485 176.838 165.519 182.476 161.368 185.858ZM162.092 144.34C161.302 141.886 159.588 140.361 156.886 139.764C154.25 139.167 152.075 139.697 150.362 141.488C148.648 143.213 147.264 146.263 146.21 150.574L143.046 164.303C141.992 168.946 141.86 172.527 142.585 175.048C143.31 177.568 145.089 179.16 147.791 179.823C150.493 180.486 152.734 179.823 154.448 177.966C156.161 176.109 157.545 172.925 158.6 168.548L161.697 155.018C162.751 150.309 162.883 146.728 162.092 144.34Z" fill="#7EBCFF"/>
</g>
<path fill-rule="evenodd" clip-rule="evenodd" d="M273.377 95.2468C273.377 92.0419 273.952 89.3499 275.101 87.2347C276.25 85.1195 277.974 82.748 280.208 80.1841C281.868 78.2612 283.145 76.5947 283.911 75.3128C284.677 74.0309 285.061 72.5567 285.061 70.9542C285.061 69.2236 284.422 67.8135 283.145 66.788C281.868 65.7624 280.145 65.2497 277.91 65.2497C275.931 65.2497 274.016 65.6342 272.292 66.4675C270.568 67.3008 268.27 68.5186 265.397 70.2492C263.609 71.2747 262.077 71.7875 260.864 71.7875C259.523 71.7875 258.438 71.2106 257.544 70.0569C256.65 68.9032 256.203 67.493 256.203 65.8906C256.203 64.7369 256.395 63.7755 256.842 63.0063C257.225 62.2371 257.863 61.468 258.757 60.7629C261.502 58.5837 264.694 56.8531 268.27 55.6352C271.845 54.4174 275.484 53.7764 279.123 53.7764C283.018 53.7764 286.465 54.4815 289.593 55.8275C292.722 57.2376 295.084 59.0964 296.808 61.5321C298.531 63.9677 299.361 66.6598 299.361 69.6723C299.361 71.9798 298.915 74.095 298.021 76.0179C297.127 77.9407 296.042 79.6073 294.765 81.0174C293.488 82.4275 291.828 84.1581 289.721 86.2733C287.359 88.4525 285.571 90.3113 284.358 91.7856C283.145 93.2598 282.443 94.9263 282.124 96.721C281.868 97.9388 281.358 98.8361 280.591 99.4771C279.825 100.118 278.868 100.439 277.719 100.439C276.378 100.439 275.292 99.9899 274.526 99.0284C273.76 98.067 273.377 96.8492 273.377 95.2468ZM269.993 113.514C269.993 111.207 270.76 109.284 272.228 107.746C273.76 106.207 275.612 105.438 277.974 105.438C280.208 105.438 282.124 106.207 283.592 107.746C285.124 109.284 285.827 111.207 285.827 113.514C285.827 115.822 285.061 117.745 283.592 119.283C282.06 120.821 280.208 121.59 277.974 121.59C275.612 121.59 273.696 120.821 272.228 119.283C270.696 117.745 269.993 115.822 269.993 113.514Z" fill="url(#paint8_linear_107_2)"/>
<path fill-rule="evenodd" clip-rule="evenodd" d="M22.8571 107.143L15.7143 114.286V114.286C11.7694 114.286 8.57142 111.088 8.57142 107.143C8.57142 103.198 11.7694 100 15.7143 100C19.6592 100 22.8571 103.198 22.8571 107.143C22.8571 111.088 22.8571 107.143 22.8571 107.143Z" fill="url(#paint9_linear_107_2)"/>
<path fill-rule="evenodd" clip-rule="evenodd" d="M95.7143 258.571L82.8571 271.429V271.429C75.7563 271.429 70 265.672 70 258.571C70 251.471 75.7563 245.714 82.8571 245.714C89.9579 245.714 95.7143 251.471 95.7143 258.571C95.7143 265.672 95.7143 258.571 95.7143 258.571Z" fill="url(#paint10_linear_107_2)"/>
<path fill-rule="evenodd" clip-rule="evenodd" d="M128.571 26.4285L119.286 35.7142V35.7142C114.157 35.7142 110 31.5569 110 26.4285C110 21.3001 114.157 17.1428 119.286 17.1428C124.414 17.1428 128.571 21.3001 128.571 26.4285C128.571 31.5569 128.571 26.4285 128.571 26.4285Z" fill="url(#paint11_linear_107_2)"/>
<path fill-rule="evenodd" clip-rule="evenodd" d="M270 195.714L260 205.714V205.714C254.477 205.714 250 201.237 250 195.714C250 190.191 254.477 185.714 260 185.714C265.523 185.714 270 190.191 270 195.714C270 201.237 270 195.714 270 195.714Z" fill="url(#paint12_linear_107_2)"/>
<path fill-rule="evenodd" clip-rule="evenodd" d="M270 239.286L259.286 250V250C253.368 250 248.571 245.203 248.571 239.286C248.571 233.368 253.368 228.572 259.286 228.572C265.203 228.572 270 233.368 270 239.286C270 245.203 270 239.286 270 239.286Z" fill="url(#paint13_linear_107_2)"/>
</g>
<defs>
<linearGradient id="paint0_linear_107_2" x1="54.7217" y1="60.7436" x2="54.7217" y2="91.5095" gradientUnits="userSpaceOnUse">
<stop stop-color="#1C8BD7"/>
<stop offset="1" stop-color="#66A9D7"/>
</linearGradient>
<linearGradient id="paint1_linear_107_2" x1="74.6886" y1="52.701" x2="74.6886" y2="82.7139" gradientUnits="userSpaceOnUse">
<stop stop-color="#1C8BD7"/>
<stop offset="1" stop-color="#66A9D7"/>
</linearGradient>
<linearGradient id="paint2_linear_107_2" x1="83.6656" y1="71.5638" x2="83.6656" y2="87.9469" gradientUnits="userSpaceOnUse">
<stop stop-color="#1C8BD7"/>
<stop offset="1" stop-color="#66A9D7"/>
</linearGradient>
<linearGradient id="paint3_linear_107_2" x1="-18.3885" y1="98.9719" x2="-18.3246" y2="201.351" gradientUnits="userSpaceOnUse">
<stop stop-color="#368ECA"/>
<stop offset="0.0001" stop-color="#45ADF3" stop-opacity="0.909804"/>
<stop offset="1" stop-color="#50DCFB"/>
</linearGradient>
<linearGradient id="paint4_linear_107_2" x1="53.9697" y1="130.432" x2="-3.17676" y2="271.499" gradientUnits="userSpaceOnUse">
<stop stop-color="#50DCFB"/>
<stop offset="1" stop-color="#509FFB"/>
</linearGradient>
<linearGradient id="paint5_linear_107_2" x1="-21.5534" y1="106.936" x2="-21.3917" y2="279.772" gradientUnits="userSpaceOnUse">
<stop stop-color="#368ECA"/>
<stop offset="1" stop-color="#50DCFB"/>
</linearGradient>
<linearGradient id="paint6_linear_107_2" x1="197.143" y1="55.7142" x2="197.143" y2="78.5713" gradientUnits="userSpaceOnUse">
<stop stop-color="#1C8BD7"/>
<stop offset="1" stop-color="#66A9D7"/>
</linearGradient>
<linearGradient id="paint7_linear_107_2" x1="121.429" y1="64.2858" x2="121.429" y2="266.988" gradientUnits="userSpaceOnUse">
<stop stop-color="#89C1FF"/>
<stop offset="1" stop-color="#65ADFD"/>
</linearGradient>
<linearGradient id="paint8_linear_107_2" x1="256.22" y1="36.8957" x2="215.165" y2="89.337" gradientUnits="userSpaceOnUse">
<stop stop-color="#368ECA"/>
<stop offset="1" stop-color="#368ECA"/>
</linearGradient>
<linearGradient id="paint9_linear_107_2" x1="8.57142" y1="100" x2="8.57142" y2="114.286" gradientUnits="userSpaceOnUse">
<stop stop-color="#1C8BD7"/>
<stop offset="1" stop-color="#66A9D7"/>
</linearGradient>
<linearGradient id="paint10_linear_107_2" x1="70" y1="245.714" x2="70" y2="271.429" gradientUnits="userSpaceOnUse">
<stop stop-color="#1C8BD7"/>
<stop offset="1" stop-color="#66A9D7"/>
</linearGradient>
<linearGradient id="paint11_linear_107_2" x1="110" y1="17.1428" x2="110" y2="35.7142" gradientUnits="userSpaceOnUse">
<stop stop-color="#1C8BD7"/>
<stop offset="1" stop-color="#66A9D7"/>
</linearGradient>
<linearGradient id="paint12_linear_107_2" x1="250" y1="185.714" x2="250" y2="205.714" gradientUnits="userSpaceOnUse">
<stop stop-color="#1C8BD7"/>
<stop offset="1" stop-color="#66A9D7"/>
</linearGradient>
<linearGradient id="paint13_linear_107_2" x1="248.571" y1="228.572" x2="248.571" y2="250" gradientUnits="userSpaceOnUse">
<stop stop-color="#1C8BD7"/>
<stop offset="1" stop-color="#66A9D7"/>
</linearGradient>
</defs>
</svg>
