<svg width="375" height="279" viewBox="0 0 375 279" fill="none" xmlns="http://www.w3.org/2000/svg">
<g id="success-transaction">
<g id="freepik--background-complete--inject-8">
<rect id="Rectangle" y="244.769" width="375" height="0.187668" fill="#EBEBEB"/>
<rect id="Rectangle_2" x="112.53" y="249.559" width="17.385" height="0.187668" fill="#EBEBEB"/>
<rect id="Rectangle_3" x="301.575" y="253.582" width="42.5025" height="0.187668" fill="#EBEBEB"/>
<rect id="Rectangle_4" x="32.04" y="253.582" width="42.5025" height="0.187668" fill="#EBEBEB"/>
<rect id="Rectangle_5" x="218.985" y="185.189" width="17.3175" height="59.9861" fill="#E6E6E6"/>
<rect id="Rectangle_6" x="206.723" y="185.189" width="17.3175" height="59.9861" fill="#E6E6E6"/>
<path id="Path" d="M220.755 245.175H224.04V235.806H217.297L220.755 245.175V245.175Z" fill="#F0F0F0"/>
<rect id="Rectangle_7" x="119.67" y="185.189" width="17.3175" height="59.9861" fill="#E6E6E6"/>
<rect id="Rectangle_8" x="134.123" y="185.189" width="89.925" height="55.3769" fill="#F0F0F0"/>
<path id="Shape" fill-rule="evenodd" clip-rule="evenodd" d="M183.195 228.105H218.445C220.32 228.076 221.827 226.551 221.835 224.674V190.961C221.831 189.07 220.297 187.538 218.407 187.538H183.195C181.305 187.538 179.772 189.07 179.767 190.961V224.674C179.776 226.565 181.305 228.096 183.195 228.105ZM180.525 190.976C180.533 189.506 181.726 188.319 183.195 188.319L218.437 188.304C219.143 188.302 219.82 188.581 220.32 189.08C220.819 189.578 221.1 190.255 221.1 190.961V224.742C221.088 226.215 219.887 227.4 218.415 227.391H183.165C182.457 227.383 181.781 227.094 181.286 226.588C180.791 226.081 180.517 225.398 180.525 224.689V190.976Z" fill="#E0E0E0"/>
<path id="Shape_2" fill-rule="evenodd" clip-rule="evenodd" d="M139.68 228.105H174.93C176.821 228.1 178.353 226.567 178.357 224.674V190.961C178.353 189.07 176.82 187.538 174.93 187.538H139.68C137.79 187.538 136.257 189.07 136.252 190.961V224.674C136.261 226.565 137.79 228.096 139.68 228.105ZM137.798 189.095C138.297 188.596 138.974 188.317 139.68 188.319L174.93 188.304C176.399 188.304 177.592 189.491 177.6 190.961V224.689C177.592 226.16 176.4 227.35 174.93 227.354H139.68C138.974 227.354 138.297 227.073 137.797 226.573C137.298 226.074 137.017 225.396 137.017 224.689V190.976C137.017 190.27 137.298 189.593 137.798 189.095Z" fill="#E0E0E0"/>
<path id="Path_2" d="M171.66 198.19C169.834 198.19 168.354 196.71 168.353 194.882C168.351 193.055 169.829 191.572 171.655 191.569C173.481 191.567 174.963 193.045 174.968 194.872V194.872C174.968 196.702 173.488 198.186 171.66 198.19Z" fill="#FAFAFA"/>
<path id="Path_3" d="M186.495 198.19C184.668 198.203 183.178 196.731 183.165 194.902C183.153 193.074 184.623 191.582 186.45 191.57C188.277 191.557 189.767 193.029 189.78 194.857V194.925C189.76 196.729 188.297 198.182 186.495 198.19Z" fill="#FAFAFA"/>
<path id="Path_4" d="M137.407 245.175H134.115V235.806H140.857L137.407 245.175V245.175Z" fill="#F0F0F0"/>
<rect id="Rectangle_9" x="114.157" y="185.189" width="17.3175" height="59.9861" fill="#E6E6E6"/>
<path id="Path_5" d="M128.183 245.175H131.475V235.806H124.733L128.183 245.175V245.175Z" fill="#F0F0F0"/>
<rect id="Rectangle_10" x="41.55" y="185.189" width="89.925" height="55.3769" fill="#F0F0F0"/>
<path id="Shape_3" fill-rule="evenodd" clip-rule="evenodd" d="M90.6224 228.105H125.872C127.751 228.084 129.263 226.554 129.262 224.674V190.961C129.258 189.07 127.725 187.538 125.835 187.538H90.6224C88.7324 187.538 87.1991 189.07 87.1949 190.961V224.674C87.1949 226.569 88.7295 228.105 90.6224 228.105ZM88.7402 189.095C89.2398 188.596 89.917 188.317 90.6224 188.319L125.88 188.304C127.346 188.308 128.534 189.494 128.542 190.961V224.742C128.526 226.216 127.323 227.4 125.85 227.391H90.5999C89.8918 227.383 89.2158 227.094 88.7207 226.588C88.2256 226.081 87.9519 225.398 87.9599 224.689V190.976C87.9599 190.27 88.2407 189.593 88.7402 189.095Z" fill="#E0E0E0"/>
<path id="Shape_4" fill-rule="evenodd" clip-rule="evenodd" d="M47.1525 228.105H82.3575C84.2487 228.1 85.7809 226.567 85.785 224.674V190.961C85.785 190.052 85.4236 189.18 84.7806 188.538C84.1376 187.896 83.2658 187.536 82.3575 187.538H47.1525C46.2441 187.536 45.3723 187.896 44.7293 188.538C44.0863 189.18 43.725 190.052 43.725 190.961V224.674C43.725 226.569 45.2595 228.105 47.1525 228.105ZM45.2654 189.092C45.7666 188.593 46.4457 188.315 47.1525 188.319L82.3725 188.289C83.0792 188.285 83.7584 188.563 84.2595 189.062C84.7607 189.561 85.0425 190.239 85.0425 190.946V224.727C85.0425 225.435 84.7609 226.114 84.26 226.614C83.7591 227.114 83.0799 227.393 82.3725 227.391H47.1225C46.4143 227.384 45.7383 227.094 45.2432 226.588C44.7481 226.081 44.4745 225.398 44.4825 224.689V190.976C44.4825 190.269 44.7642 189.591 45.2654 189.092Z" fill="#E0E0E0"/>
<path id="Path_6" d="M79.095 198.19C77.2683 198.195 75.7842 196.716 75.78 194.887C75.7759 193.059 77.2534 191.574 79.08 191.569C80.9067 191.565 82.3909 193.044 82.395 194.872V194.872C82.399 195.751 82.0531 196.595 81.4338 197.218C80.8145 197.84 79.9728 198.19 79.095 198.19Z" fill="#FAFAFA"/>
<path id="Path_7" d="M93.93 198.19C92.1034 198.203 90.6126 196.731 90.6002 194.902C90.5878 193.074 92.0585 191.582 93.8851 191.57C95.7117 191.557 97.2026 193.029 97.215 194.857V194.925C97.1946 196.729 95.7322 198.182 93.93 198.19Z" fill="#FAFAFA"/>
<path id="Path_8" d="M44.835 245.175H41.55V235.806H48.285L44.835 245.175V245.175Z" fill="#F0F0F0"/>
<rect id="Rectangle_11" x="168.24" y="18.9078" width="32.22" height="32.2488" fill="#EBEBEB"/>
<rect id="Rectangle_12" x="200.468" y="18.9153" width="1.425" height="32.2488" fill="#E0E0E0"/>
<rect id="Rectangle_13" x="172.613" y="23.2842" width="23.49" height="23.511" fill="white"/>
<path id="Path_9" d="M188.287 38.9657V38.9657C187.245 40.0113 185.83 40.5989 184.354 40.5989C182.878 40.5989 181.463 40.0113 180.42 38.9657V38.9657C178.253 36.7916 178.253 33.2727 180.42 31.0987V31.0987C182.595 28.9293 186.113 28.9293 188.287 31.0987V31.0987C190.454 33.2727 190.454 36.7916 188.287 38.9657V38.9657Z" fill="#F5F5F5"/>
<rect id="Rectangle_14" x="131.123" y="60.3748" width="37.7775" height="37.8113" fill="#EBEBEB"/>
<rect id="Rectangle_15" x="168.9" y="60.3823" width="1.6725" height="37.8113" fill="#E0E0E0"/>
<rect id="Rectangle_16" x="136.245" y="65.5019" width="27.54" height="27.5646" fill="white"/>
<rect id="Rectangle_17" x="144.135" y="73.3989" width="11.745" height="11.7555" fill="#F5F5F5"/>
<rect id="Rectangle_18" x="317.422" y="48.2139" width="20.4525" height="4.78177" fill="#E6E6E6"/>
<rect id="Rectangle_19" x="232.762" y="48.2139" width="84.66" height="4.78177" fill="#F5F5F5"/>
<rect id="Rectangle_20" x="257.032" y="22.8263" width="23.835" height="25.3952" fill="#E0E0E0"/>
<rect id="Rectangle_21" x="250.927" y="22.8263" width="6.105" height="25.3952" fill="#F0F0F0"/>
<rect id="Rectangle_22" x="269.213" y="18.9078" width="17.9025" height="29.3062" fill="#E6E6E6"/>
<rect id="Rectangle_23" x="264.045" y="18.9078" width="5.175" height="29.3062" fill="#F0F0F0"/>
<rect id="Rectangle_24" x="274.492" y="22.8263" width="15.0975" height="25.3952" fill="#F0F0F0"/>
<rect id="Rectangle_25" x="271.042" y="22.8263" width="3.45" height="25.3952" fill="#FAFAFA"/>
<rect id="Rectangle_26" x="286.845" y="27.1201" width="19.8" height="21.0938" fill="#E6E6E6"/>
<rect id="Rectangle_27" x="281.775" y="27.1201" width="5.07" height="21.0938" fill="#FAFAFA"/>
<rect id="Rectangle_28" x="296.963" y="23.8697" width="14.8725" height="24.3517" fill="#E6E6E6"/>
<rect id="Rectangle_29" x="292.665" y="23.8697" width="4.2975" height="24.3517" fill="#F0F0F0"/>
<rect id="Rectangle_30" x="301.343" y="27.1201" width="14.445" height="21.0938" fill="#F0F0F0"/>
<rect id="Rectangle_31" x="298.478" y="27.1201" width="2.865" height="21.0938" fill="#FAFAFA"/>
<path id="Path_10" d="M305.318 189.986C311.723 181.608 326.97 178.493 332.243 173.208C339.143 166.279 339.113 155.883 333.233 152.129C328.133 148.871 311.213 170.896 309.315 173.373C302.753 181.848 300.855 188.131 299.625 194.219C299.768 189.047 299.903 184.288 300.015 180.625C300.368 168.666 300.81 164.816 301.02 163.637C301.77 163.051 302.565 162.383 303.045 162.023C307.14 158.968 316.215 155.327 320.753 150.891C327.383 144.405 326.31 136.628 321.66 133.753C316.808 130.75 308.213 137.874 303.66 144.953C299.108 152.032 301.05 158.818 299.775 164.65C299.505 165.806 299.228 170.183 298.973 176.256C297.893 170.271 294.585 164.919 289.718 161.28C283.44 156.265 278.018 150.155 272.843 150.943C267.668 151.731 270.48 159.816 274.545 165.491C278.19 170.543 296.183 175.588 298.83 179.649C298.515 187.906 298.238 198.303 298.043 208.017C296.625 203.002 297.6 202.582 291.788 194.88C288.338 190.316 274.163 184.671 272.483 187.824C270.803 190.976 273.36 196.892 278.708 201.043C283.02 204.391 292.553 204.383 294.81 206.463C295.328 206.943 297.06 208.805 298.005 209.878C297.773 221.724 297.675 232.181 297.788 235.754L298.718 235.791C298.673 234.868 298.778 228.84 298.965 220.861C301.29 216.619 316.965 214.105 321.773 209.721C326.828 205.104 330.458 199.714 328.29 196.103C326.483 193.101 312.255 197.184 306.428 202.169C302.573 205.487 300.218 209.038 299.138 213.797C299.265 208.362 299.423 202.537 299.565 197.019C300.75 195.676 303.398 192.5 305.318 189.986Z" fill="#E6E6E6"/>
<path id="Path_11" d="M306.683 245.017H290.438C289.545 245.017 288.78 243.861 288.608 242.255L287.453 231.745H309.66L308.513 242.255C308.325 243.861 307.568 245.017 306.683 245.017Z" fill="#F0F0F0"/>
<path id="Path_12" d="M310.125 235.806H286.988C286.433 235.806 285.968 235.056 285.908 234.02L285.435 226.243C285.36 225.049 285.863 223.991 286.515 223.991H310.605C311.25 223.991 311.753 225.034 311.678 226.243L311.205 234.02C311.153 235.041 310.68 235.806 310.125 235.806Z" fill="#F0F0F0"/>
<g id="freepik--Shadow--inject-62--inject-8">
<ellipse id="freepik--path--inject-62--inject-8" cx="187.5" cy="270.172" rx="145.417" ry="8.49759" fill="#F5F5F5"/>
</g>
</g>
<g id="freepik--Coins--inject-8">
<path id="Path_13" d="M160.867 74.5775C159.21 78.6086 149.452 78.3308 139.23 74.1121C129.007 69.8933 122.055 63.2048 123.712 59.1737C124.102 58.2429 125.212 54.7523 126.322 54.2719C130.132 52.6579 137.385 56.2837 145.237 59.5265C152.55 62.5292 160.912 64.4885 162.21 68.4595C162.99 70.8767 161.34 73.429 160.867 74.5775Z" fill="#368ECA"/>
<path id="Path_14" opacity="0.2" d="M162.21 68.4595C162.832 71.6198 161.46 73.1362 160.867 74.5775C160.275 76.0188 158.542 76.9646 156.12 77.2949C155.817 77.3464 155.512 77.3815 155.205 77.4C153.347 77.5093 151.483 77.4111 149.647 77.1072C149.385 77.1072 149.122 77.0247 148.852 76.9796C146.697 76.5924 144.574 76.0454 142.5 75.3432L141.75 75.0879C140.917 74.7952 140.062 74.4724 139.207 74.1196C138.352 73.7668 137.542 73.3689 136.74 73.0161L136.05 72.6858C134.159 71.75 132.337 70.6814 130.597 69.4879L129.982 69.0525C128.464 67.9781 127.072 66.734 125.835 65.3442C125.647 65.134 125.475 64.9314 125.31 64.7212C123.697 62.6794 123.06 60.7276 123.697 59.1737C124.117 58.1753 125.017 54.7598 126.307 54.2643C127.894 53.817 129.573 53.817 131.16 54.2643L131.91 54.4445C135.66 55.4054 140.385 57.5448 145.207 59.534C150.892 61.8836 157.62 64.3233 160.92 67.1383C161.116 67.3037 161.304 67.4791 161.482 67.6638C161.746 67.9092 161.989 68.1753 162.21 68.4595V68.4595Z" fill="black"/>
<g id="Group" opacity="0.2">
<path id="Path_15" d="M132.285 53.7989L131.94 54.4295L125.85 65.3367C125.662 65.1265 125.49 64.9239 125.325 64.7137L131.175 54.2493L131.632 53.4386L132.285 53.7989Z" fill="black"/>
</g>
<g id="Group_2" opacity="0.2">
<path id="Path_16" d="M136.89 58.2504L130.612 69.5105L129.997 69.0751L136.237 57.9051L136.89 58.2504Z" fill="black"/>
</g>
<g id="Group_3" opacity="0.2">
<path id="Path_17" d="M148.432 64.7061L142.5 75.3431L141.75 75.0879L147.75 64.3083L148.432 64.7061Z" fill="black"/>
</g>
<g id="Group_4" opacity="0.2">
<path id="Path_18" d="M143.062 61.7035L136.755 73.0161L136.065 72.6858L142.41 61.3056L143.062 61.7035Z" fill="black"/>
</g>
<g id="Group_5" opacity="0.2">
<path id="Path_19" d="M155.43 66.763L149.647 77.1072C149.385 77.1072 149.122 77.0247 148.852 76.9796L154.77 66.3877L155.43 66.763Z" fill="black"/>
</g>
<path id="Path_20" d="M162.165 71.0643C160.507 75.0954 150.87 74.9378 140.64 70.7115C130.41 66.4852 123.465 59.8043 125.13 55.7732C126.795 51.7421 136.425 51.9072 146.655 56.126C156.885 60.3448 163.822 67.0107 162.165 71.0643Z" fill="#368ECA"/>
<path id="Path_21" opacity="0.2" d="M158.685 69.6005C157.515 72.4456 150 72.0477 141.908 68.7072C133.815 65.3668 128.205 60.3448 129.375 57.4997C130.545 54.6547 138.06 55.0526 146.16 58.393C154.26 61.7335 159.863 66.7555 158.685 69.6005Z" fill="white"/>
<path id="Path_22" d="M212.557 38.14C215.227 41.5855 210.142 49.9255 201.39 56.704C192.637 63.4826 183.39 66.185 180.727 62.7094C180.112 61.9137 177.622 59.2488 177.772 58.0027C178.275 53.8965 185.017 49.4075 191.737 44.1979C197.992 39.3485 203.835 33.0579 207.922 33.9062C210.405 34.4542 211.8 37.1641 212.557 38.14Z" fill="#368ECA"/>
<path id="Path_23" opacity="0.2" d="M207.922 33.9362C210.975 34.9721 211.605 36.9389 212.557 38.1399C213.51 39.341 213.472 41.3453 212.557 43.6198C212.452 43.8976 212.325 44.1753 212.19 44.4606C211.368 46.1294 210.362 47.7006 209.19 49.1448C209.032 49.355 208.86 49.5576 208.687 49.7678C207.277 51.4515 205.743 53.0273 204.097 54.482L203.52 54.985C202.852 55.563 202.147 56.141 201.42 56.704C200.692 57.267 199.965 57.8 199.23 58.3029C199.027 58.4531 198.81 58.5957 198.607 58.7383C196.855 59.9149 195.02 60.9635 193.117 61.8761C192.885 61.9962 192.66 62.0938 192.442 62.1989C190.752 62.9818 188.978 63.571 187.155 63.9555C186.885 64.0155 186.622 64.0606 186.36 64.0981C183.787 64.481 181.777 64.0981 180.75 62.7394C180.09 61.8836 177.577 59.3989 177.795 58.0402C178.187 56.434 179.021 54.9699 180.202 53.8139C180.367 53.6263 180.547 53.4386 180.735 53.2434C183.442 50.4359 187.635 47.4257 191.76 44.2354C196.627 40.482 202.087 35.8354 206.16 34.3791C206.406 34.2887 206.656 34.211 206.91 34.1464C207.242 34.0517 207.58 33.9814 207.922 33.9362V33.9362Z" fill="black"/>
<g id="Group_6" opacity="0.2">
<path id="Path_24" d="M180.337 52.6279L180.712 53.2434L187.132 63.9555C186.862 64.0155 186.6 64.0606 186.337 64.0981L180.18 53.7989L179.7 53.0482L180.337 52.6279Z" fill="black"/>
</g>
<g id="Group_7" opacity="0.2">
<path id="Path_25" d="M186.48 50.8413L193.095 61.8761C192.862 61.9962 192.637 62.0938 192.42 62.1989L185.835 51.2241L186.48 50.8413Z" fill="black"/>
</g>
<g id="Group_8" opacity="0.2">
<path id="Path_26" d="M197.812 44.0402L204.075 54.4896L203.497 54.9925L197.167 44.4231L197.812 44.0402Z" fill="black"/>
</g>
<g id="Group_9" opacity="0.2">
<path id="Path_27" d="M192.548 47.2005L199.208 58.3029C199.005 58.4531 198.788 58.5957 198.585 58.7383L191.895 47.5834L192.548 47.2005Z" fill="black"/>
</g>
<g id="Group_10" opacity="0.2">
<path id="Path_28" d="M203.077 38.9732L209.167 49.1448C209.01 49.3549 208.837 49.5576 208.665 49.7678L202.432 39.3635L203.077 38.9732Z" fill="black"/>
</g>
<ellipse id="Oval" cx="194.292" cy="47.5207" rx="20.0392" ry="7.88691" transform="rotate(-37.76 194.292 47.5207)" fill="#368ECA"/>
<ellipse id="Oval_2" opacity="0.2" cx="194.622" cy="47.2593" rx="15.8603" ry="5.57562" transform="rotate(-37.76 194.622 47.2593)" fill="white"/>
<path id="Path_29" d="M176.355 22.0005C175.5 26.9399 164.43 29.0268 151.89 26.7748C139.35 24.5228 129.892 18.7201 130.77 13.7807C130.972 12.6322 131.325 8.45094 132.502 7.6177C136.395 4.87024 145.44 7.16729 155.07 8.87882C164.07 10.4777 173.917 10.6054 176.355 14.7566C177.832 17.3088 176.602 20.5893 176.355 22.0005Z" fill="#368ECA"/>
<path id="Path_30" opacity="0.2" d="M176.355 14.7641C177.855 18.1721 176.662 20.2064 176.355 21.978C176.047 23.7496 174.33 25.2284 171.69 26.2043C171.367 26.3319 171.03 26.437 170.685 26.5421C168.62 27.123 166.497 27.473 164.355 27.5855C164.047 27.5855 163.747 27.5855 163.432 27.6381C160.909 27.7309 158.382 27.6381 155.872 27.3603L154.995 27.2477C153.982 27.1201 152.94 26.97 151.897 26.7823C150.855 26.5946 149.842 26.3845 148.845 26.1517C148.56 26.0917 148.275 26.0166 147.99 25.9491C145.634 25.3667 143.323 24.614 141.075 23.6971C140.797 23.592 140.535 23.4719 140.272 23.3668C138.3 22.5263 136.428 21.4662 134.692 20.2064C134.43 20.0188 134.19 19.8311 133.942 19.6359C131.617 17.7367 130.425 15.6949 130.762 13.7957C130.987 12.5646 131.167 8.54102 132.487 7.63271C133.807 6.7244 135.697 6.43915 137.947 6.43164H138.847C143.347 6.58177 149.145 7.83539 155.062 8.88633C162.037 10.1324 170.205 11.2209 174.6 13.578C174.858 13.7148 175.108 13.8651 175.35 14.0284C175.704 14.2471 176.04 14.493 176.355 14.7641V14.7641Z" fill="black"/>
<g id="Group_11" opacity="0.2">
<path id="Path_31" d="M139.095 5.66593L138.855 6.45414L134.685 20.2214C134.422 20.0338 134.182 19.8461 133.935 19.6509L137.94 6.44663L138.255 5.41821L139.095 5.66593Z" fill="black"/>
</g>
<g id="Group_12" opacity="0.2">
<path id="Path_32" d="M145.365 9.50938L141.068 23.6895C140.79 23.5844 140.528 23.4643 140.265 23.3592L144.54 9.24664L145.365 9.50938Z" fill="black"/>
</g>
<g id="Group_13" opacity="0.2">
<path id="Path_33" d="M159.937 13.9533L155.865 27.3828L154.987 27.2702L159.105 13.6981L159.937 13.9533Z" fill="black"/>
</g>
<g id="Group_14" opacity="0.2">
<path id="Path_34" d="M153.165 11.8965L148.837 26.1593C148.552 26.0992 148.267 26.0241 147.982 25.9566L152.332 11.6263L153.165 11.8965Z" fill="black"/>
</g>
<g id="Group_15" opacity="0.2">
<path id="Path_35" d="M168.315 14.5389L164.347 27.608C164.04 27.608 163.74 27.608 163.425 27.6606L167.482 14.2911L168.315 14.5389Z" fill="black"/>
</g>
<ellipse id="Oval_3" cx="154.226" cy="13.6426" rx="9.08286" ry="23.0706" transform="rotate(-79.91 154.226 13.6426)" fill="#368ECA"/>
<ellipse id="Oval_4" opacity="0.2" cx="154.697" cy="13.7319" rx="6.41806" ry="18.2555" transform="rotate(-79.91 154.697 13.7319)" fill="white"/>
</g>
<g id="freepik--Wallet--inject-8">
<path id="Path_36" d="M241.83 148.106L164.647 152.61C161.921 152.77 159.246 153.421 156.75 154.531L72.915 192.065C69.8838 193.399 68.1959 196.671 68.865 199.917L82.7175 265.488C83.1921 267.628 84.6283 269.428 86.6082 270.364C88.5881 271.301 90.8894 271.269 92.8425 270.277L175.59 228.93L252 226.371C253.902 226.32 255.69 225.452 256.909 223.99C258.128 222.527 258.659 220.611 258.367 218.729L248.145 155.943C247.612 152.7 245.152 148.008 241.83 148.106Z" fill="#368ECA"/>
<path id="Path_37" opacity="0.1" d="M241.83 148.106L164.647 152.61C161.921 152.77 159.246 153.421 156.75 154.531L72.915 192.065C69.8838 193.399 68.1959 196.671 68.865 199.917L82.7175 265.488C83.1921 267.628 84.6283 269.428 86.6082 270.364C88.5881 271.301 90.8894 271.269 92.8425 270.277L175.59 228.93L252 226.371C253.902 226.32 255.69 225.452 256.909 223.99C258.128 222.527 258.659 220.611 258.367 218.729L248.145 155.943C247.612 152.7 245.152 148.008 241.83 148.106Z" fill="black"/>
<path id="Rectangle_32" d="M46.4051 142.781L86.9092 105.411L159.596 184.333L119.091 221.704L46.4051 142.781Z" fill="#368ECA"/>
<path id="Path_38" opacity="0.5" d="M159.585 184.34L119.078 221.709L46.4025 142.791L72.9825 118.266L86.91 105.415L89.2275 107.937L159.585 184.34V184.34Z" fill="#FAFAFA"/>
<path id="Rectangle_33" fill-rule="evenodd" clip-rule="evenodd" d="M51.4298 143.21L87.1694 110.236L155.159 184.058L119.419 217.033L51.4298 143.21Z" stroke="#368ECA"/>
<ellipse id="Oval_5" cx="102.755" cy="163.057" rx="10.0991" ry="12.6661" transform="rotate(-42.67 102.755 163.057)" fill="#368ECA"/>
<path id="Path_39" opacity="0.1" d="M118.65 189.678L104.258 194.655L72.9825 118.266L86.91 105.415L89.2275 107.937L118.65 189.678V189.678Z" fill="black"/>
<path id="Rectangle_34" d="M69.666 93.2857L121.454 74.4912L158.01 175.401L106.222 194.196L69.666 93.2857Z" fill="#368ECA"/>
<path id="Rectangle_35" opacity="0.5" d="M69.666 93.2857L121.454 74.4912L158.01 175.401L106.222 194.196L69.666 93.2857Z" fill="#FAFAFA"/>
<path id="Rectangle_36" fill-rule="evenodd" clip-rule="evenodd" d="M74.13 95.6253L119.826 79.0416L154.02 173.431L108.324 190.014L74.13 95.6253Z" stroke="#368ECA"/>
<ellipse id="Oval_6" cx="113.81" cy="133.781" rx="10.096" ry="12.67" transform="rotate(-19.93 113.81 133.781)" fill="#368ECA"/>
<path id="Path_40" d="M242.333 150.771L166.208 155.064C163.509 155.212 160.861 155.861 158.4 156.979L75.795 194.302C72.7976 195.658 71.1446 198.917 71.82 202.139L85.6725 267.74C86.1247 269.867 87.5362 271.664 89.4943 272.605C91.4524 273.547 93.736 273.527 95.6775 272.552L177.202 231.438L252.562 229.05C254.45 228.991 256.22 228.12 257.421 226.661C258.621 225.202 259.136 223.297 258.833 221.431L248.58 158.653C248.048 155.38 245.618 150.68 242.333 150.771Z" fill="#368ECA"/>
<path id="Path_41" opacity="0.2" d="M169.305 166.55L234.623 162.526" stroke="black" stroke-width="2" stroke-linecap="round" stroke-linejoin="round"/>
<path id="Path_42" opacity="0.2" d="M161.483 168.239L173.415 223.098" stroke="black" stroke-width="2" stroke-linecap="round" stroke-linejoin="round"/>
<path id="Path_43" opacity="0.2" d="M81.9225 217.768L90.3375 259.963C90.3375 259.963 96.7875 243.223 81.9225 217.768Z" fill="#FAFAFA"/>
<path id="Path_44" opacity="0.2" d="M83.025 218.263C83.3175 219.014 157.77 187.035 157.77 187.035C158.181 201.82 150.247 215.579 137.25 222.617C114.84 235.191 83.025 218.263 83.025 218.263Z" fill="#FAFAFA"/>
<ellipse id="Oval_7" cx="132.48" cy="216.281" rx="3.225" ry="3.22788" fill="#368ECA"/>
<path id="Path_45" opacity="0.2" d="M157.807 187.035C157.807 187.035 167.04 200.945 164.805 224.636Z" fill="black"/>
<g id="Group_16" opacity="0.2">
<path id="Path_46" d="M78.36 201.193L80.0775 200.435" stroke="#FAFAFA" stroke-linecap="round" stroke-linejoin="round"/>
<path id="Path_47" d="M83.64 198.858L153.165 168.096" stroke="#FAFAFA" stroke-linecap="round" stroke-linejoin="round" stroke-dasharray="5.2 5.2"/>
<path id="Path_48" d="M154.95 167.308L156.66 166.55" stroke="#FAFAFA" stroke-linecap="round" stroke-linejoin="round"/>
</g>
<path id="Path_49" opacity="0.2" d="M171.495 178.883L236.812 174.852" stroke="black" stroke-width="2" stroke-linecap="round" stroke-linejoin="round"/>
<path id="Path_50" opacity="0.2" d="M174.435 194.264L239.753 190.233" stroke="black" stroke-width="2" stroke-linecap="round" stroke-linejoin="round"/>
</g>
<g id="freepik--Character--inject-8">
<path id="Path_51" d="M225.435 84.9968C225.435 84.9968 223.792 102.51 217.29 104.019C213.263 104.889 209.065 104.469 205.29 102.818L200.002 98.749L197.422 107.757C197.422 107.757 200.242 111.593 206.13 108.936C206.13 108.936 216.63 113.56 222.435 108.936C228.24 104.312 230.1 91.6252 230.1 91.6252L225.435 84.9968Z" fill="#B97964"/>
<path id="Path_52" d="M230.662 76.5142C230.662 76.5142 226.125 68.7748 228.187 54.7448C230.25 40.7147 242.002 38.9807 246.54 39.9941C251.077 41.0075 254.79 45.3689 257.88 53.6713C260.97 61.9737 262.11 64.1356 267.262 62.6793C272.415 61.223 286.125 56.674 289.942 60.7201C292.172 62.9646 293.137 66.1743 292.515 69.2777C292.515 69.2777 311.587 64.6386 309.937 81.6638C308.287 98.689 280.762 114.581 254.58 97.7582C228.397 80.9356 230.662 76.5142 230.662 76.5142Z" fill="#263238"/>
<path id="Path_53" d="M230.452 117.718C230.452 117.718 225.27 162.331 225.442 183.252C225.615 204.173 233.04 253.477 233.04 253.477H242.197C242.197 253.477 240.99 214.052 241.162 200.562C241.335 187.073 243.75 164.755 243.75 164.755C243.75 164.755 246.682 184.813 250.14 191.9C253.597 198.986 272.775 224.066 286.08 231.85L292.297 226.138C292.297 226.138 278.475 209.022 273.292 200.547C268.11 192.072 263.452 189.67 261.547 173.906C259.642 158.142 262.935 132.927 257.407 117.711L230.452 117.718Z" fill="#263238"/>
<path id="Path_54" opacity="0.2" d="M243.75 164.755L239.767 136.478C239.767 136.478 236.625 153.473 242.812 174.229L243.75 164.755Z" fill="black"/>
<path id="Path_55" d="M234.922 255.977L235.23 264.737L241.372 265.248L241.68 264.429V255.361L234.922 255.977V255.977Z" fill="#B97964"/>
<path id="Path_56" d="M232.005 252.644L232.568 255.924L243.113 256.18L243.78 252.239L232.005 252.644V252.644Z" fill="#368ECA"/>
<path id="Path_57" d="M283.193 232.458L292.965 223.345L295.118 226.776L286.725 234.463L283.193 232.458V232.458Z" fill="#368ECA"/>
<path id="Path_58" d="M287.902 232.458L294.352 237.893L298.492 233.021L293.197 227.542L287.902 232.458V232.458Z" fill="#B97964"/>
<path id="Path_59" d="M299.745 232.646L303.645 235.048C304.005 235.27 304.248 235.64 304.31 236.058C304.373 236.476 304.247 236.901 303.968 237.218C301.14 240.416 293.918 248.538 293.198 249.108C292.305 249.859 291.225 248.598 290.948 247.472C290.948 247.472 292.995 244.754 293.198 243.013C293.283 241.668 293.283 240.319 293.198 238.974C293.182 238.638 293.294 238.308 293.513 238.051L297.87 232.931C298.335 232.38 299.137 232.258 299.745 232.646V232.646Z" fill="#263238"/>
<path id="Path_60" d="M242.873 265.488L243.683 269.992C243.758 270.409 243.645 270.838 243.375 271.164C243.104 271.489 242.703 271.679 242.28 271.681C238.013 271.681 227.153 271.726 226.245 271.576C225.113 271.388 225.315 269.767 225.983 268.821C225.983 268.821 229.365 268.536 230.783 267.507C231.837 266.679 232.839 265.787 233.783 264.835C234.024 264.599 234.345 264.462 234.683 264.452L241.395 264.294C242.116 264.268 242.746 264.777 242.873 265.488Z" fill="#263238"/>
<path id="Path_61" d="M258.39 92.9764L267.75 86.4005C267.75 86.4005 265.26 76.4316 261.57 75.9362C257.88 75.4407 239.565 71.9501 227.918 75.9362C227.918 75.9362 223.733 77.1297 222.443 88.8927L227.423 90.4842C227.423 90.4842 229.208 112.509 230.31 115.902H256.89C256.89 115.902 257.19 96.9624 258.39 92.9764Z" fill="#368ECA"/>
<path id="Path_62" d="M260.408 91.5576C260.408 91.5576 263.955 101.692 264.585 107.142C264.585 107.142 256.155 103.779 253.98 102.24L252.33 96.3094L246.75 93.5844L245.093 98.0885L249.75 103.869C249.75 103.869 262.448 115.759 268.883 113.042C275.318 110.324 266.34 87.4139 266.34 87.4139L260.408 91.5576Z" fill="#FF8B7B"/>
<path id="Path_63" d="M236.595 47.1855C236.595 47.1855 233.348 53.6713 233.595 58.9485C233.843 64.2257 236.505 66.3801 241.568 67.1233C241.568 67.1233 243.728 73.8793 238.058 74.5624C237.623 74.615 237.473 76.334 237.503 76.6118C237.653 77.7078 238.74 78.3083 239.753 78.5635C240.819 78.7999 241.908 78.9207 243 78.9238C245.324 79.004 247.556 78.0103 249.053 76.2289C249.173 76.0863 250.313 74.63 250.313 74.63C250.313 74.63 247.605 73.2863 248.558 64.4884C249.85 63.6465 250.842 62.4167 251.393 60.9753C252.437 60.4202 253.216 59.4681 253.553 58.333C253.958 56.5764 252.405 54.1442 249.57 56.5764C249.57 56.5764 244.23 53.874 242.205 44.408C240.703 45.9433 238.725 46.9226 236.595 47.1855V47.1855Z" fill="#FF8B7B"/>
<path id="Path_64" d="M238.117 57.5072L238.575 54.0391L236.122 56.7565C236.635 57.3028 237.372 57.5801 238.117 57.5072Z" fill="#ED893E"/>
<path id="Path_65" d="M239.542 60.0445C239.542 60.0445 242.13 60.4423 243.375 58.7834" stroke="#222221" stroke-width="0.75" stroke-linecap="round" stroke-linejoin="round"/>
<path id="Path_66" d="M242.13 49.1823C243.327 48.8418 244.613 49.1847 245.483 50.0756" stroke="#222221" stroke-linecap="round" stroke-linejoin="round"/>
<path id="Path_67" d="M237.652 48.4316C237.652 48.4316 236.152 48.1989 235.485 49.0472" stroke="#222221" stroke-linecap="round" stroke-linejoin="round"/>
<path id="Path_68" d="M243.172 53.7464C243.105 54.2718 242.767 54.6547 242.422 54.6096C242.077 54.5646 241.845 54.1067 241.912 53.5812C241.98 53.0558 242.317 52.6729 242.662 52.718C243.007 52.763 243.24 53.2209 243.172 53.7464Z" fill="#222221"/>
<ellipse id="Oval_8" cx="236.553" cy="52.5023" rx="0.953337" ry="0.637509" transform="rotate(-82.6 236.553 52.5023)" fill="#222221"/>
<path id="Path_69" d="M242.67 52.718L241.485 52.2C241.517 52.4642 241.686 52.6918 241.929 52.7982C242.173 52.9047 242.455 52.8742 242.67 52.718V52.718Z" fill="#222221"/>
<path id="Path_70" d="M236.79 51.607L235.605 51.089C235.637 51.3532 235.806 51.5808 236.049 51.6872C236.293 51.7937 236.575 51.7632 236.79 51.607V51.607Z" fill="#222221"/>
<path id="Path_71" d="M229.38 114.731V117.861L258.18 118.101L257.408 114.378L229.38 114.731V114.731Z" fill="#368ECA"/>
<path id="Path_72" opacity="0.4" d="M229.38 114.731V117.861L258.18 118.101L257.408 114.378L229.38 114.731V114.731Z" fill="white"/>
</g>
<g id="freepik--Card--inject-8">
<path id="Path_73" d="M229.733 99.5373L213.893 154.682C212.815 158.46 209.548 161.201 205.643 161.603C204.427 161.719 203.201 161.607 202.028 161.272L171.75 152.557C166.654 151.085 163.709 145.764 165.165 140.659L181.013 85.4997C182.486 80.4061 187.799 77.4654 192.893 78.9239L223.193 87.6316C228.277 89.1194 231.202 94.4431 229.733 99.5373V99.5373Z" fill="#368ECA"/>
<path id="Path_74" opacity="0.2" d="M229.733 99.5373L213.893 154.682C212.815 158.46 209.548 161.201 205.643 161.603C204.427 161.719 203.201 161.607 202.028 161.272L171.75 152.557C166.654 151.085 163.709 145.764 165.165 140.659L181.013 85.4997C182.486 80.4061 187.799 77.4654 192.893 78.9239L223.193 87.6316C228.277 89.1194 231.202 94.4431 229.733 99.5373V99.5373Z" fill="black"/>
<path id="Path_75" d="M227.1 100.19L211.26 155.342C210.448 158.187 208.37 160.498 205.628 161.603C204.412 161.719 203.186 161.607 202.013 161.272L171.75 152.557C166.654 151.085 163.709 145.764 165.165 140.659L181.013 85.4997C181.825 82.6587 183.904 80.3532 186.645 79.2542C187.86 79.1303 189.088 79.2425 190.26 79.5845L220.5 88.3298C225.586 89.7919 228.536 95.0926 227.1 100.19Z" fill="#368ECA"/>
<path id="Path_76" opacity="0.5" d="M227.1 100.19L211.26 155.342C210.448 158.187 208.37 160.498 205.628 161.603C204.412 161.719 203.186 161.607 202.013 161.272L171.75 152.557C166.654 151.085 163.709 145.764 165.165 140.659L181.013 85.4997C181.825 82.6587 183.904 80.3532 186.645 79.2542C187.86 79.1303 189.088 79.2425 190.26 79.5845L220.5 88.3298C225.586 89.7919 228.536 95.0926 227.1 100.19Z" fill="#FAFAFA"/>
<path id="Rectangle_37" d="M181.275 103.966L184.516 104.88L172.85 146.31L169.609 145.395L181.275 103.966Z" fill="#FAFAFA"/>
<path id="Path_77" d="M177.503 147.625L174.263 146.687L185.925 105.272L189.158 106.203L177.503 147.625V147.625Z" fill="#FAFAFA"/>
<path id="Path_78" d="M182.213 148.976L178.973 148.046L190.635 106.631L193.875 107.562L182.213 148.976V148.976Z" fill="#FAFAFA"/>
<path id="Rectangle_38" opacity="0.5" d="M209.495 112.075L212.736 112.989L201.07 154.419L197.828 153.504L209.495 112.075Z" fill="black"/>
<path id="Path_79" d="M212.325 101.279L210.75 106.901L208.83 106.361C206.894 105.811 205.767 103.797 206.31 101.857L207.36 98.1035L211.238 99.2145C212.107 99.4845 212.594 100.408 212.325 101.279Z" fill="#FAFAFA"/>
<path id="Path_80" d="M211.403 98.5239L207.525 97.4129L208.688 93.2992C208.95 92.3672 209.571 91.5776 210.415 91.1045C211.259 90.6315 212.257 90.5136 213.188 90.7769L215.183 91.3399L213.443 97.3978C213.326 97.821 213.044 98.1791 212.66 98.3911C212.276 98.603 211.822 98.6509 211.403 98.5239V98.5239Z" fill="#FAFAFA"/>
<path id="Path_81" d="M215.077 100.34L218.977 101.459L217.942 105.13C217.684 106.064 217.063 106.856 216.218 107.33C215.373 107.804 214.373 107.92 213.442 107.652L211.417 107.082L213.03 101.466C213.15 101.044 213.434 100.687 213.819 100.476C214.203 100.264 214.657 100.215 215.077 100.34V100.34Z" fill="#FAFAFA"/>
<path id="Path_82" d="M220.358 96.5871L219.18 100.761L215.28 99.6424C214.411 99.3881 213.909 98.4803 214.155 97.608L215.895 91.5501L217.838 92.0981C218.766 92.3589 219.554 92.9784 220.026 93.8202C220.499 94.6621 220.618 95.6574 220.358 96.5871V96.5871Z" fill="#FAFAFA"/>
</g>
</g>
</svg>
