<svg width="140" height="50" viewBox="0 0 140 50" fill="none" xmlns="http://www.w3.org/2000/svg">
<rect width="140" height="50" rx="10" fill="#6C63FF"/>
<path d="M29.549 12.9L20.474 24.351L29.549 36H23.18L15.59 25.803V36H10.244V12.9H15.59V23.163L23.213 12.9H29.549ZM46.2493 27.222C46.2493 27.882 46.2053 28.619 46.1173 29.433H34.3693C34.4133 30.467 34.7653 31.27 35.4253 31.842C36.0853 32.414 36.9763 32.7 38.0983 32.7C39.6383 32.7 40.6283 32.205 41.0683 31.215H46.0183C45.7763 32.777 44.9183 34.053 43.4443 35.043C41.9923 36.011 40.2103 36.495 38.0983 36.495C35.3923 36.495 33.2583 35.747 31.6963 34.251C30.1343 32.755 29.3533 30.687 29.3533 28.047C29.3533 25.451 30.1343 23.405 31.6963 21.909C33.2583 20.391 35.3373 19.632 37.9333 19.632C40.3973 19.632 42.3993 20.336 43.9393 21.744C45.4793 23.152 46.2493 24.978 46.2493 27.222ZM34.3693 26.298H41.2663C41.2443 25.242 40.9473 24.428 40.3753 23.856C39.8033 23.284 38.9783 22.998 37.9003 22.998C36.8223 22.998 35.9643 23.306 35.3263 23.922C34.7103 24.516 34.3913 25.308 34.3693 26.298ZM49.1376 36V12.9H54.1866V36H49.1376ZM64.6904 36.429C62.3804 36.429 60.5544 35.648 59.2124 34.086C57.8704 32.524 57.1994 30.511 57.1994 28.047C57.1994 25.627 57.8924 23.625 59.2784 22.041C60.6644 20.457 62.4904 19.665 64.7564 19.665C65.8784 19.665 66.8794 19.907 67.7594 20.391C68.6394 20.875 69.2994 21.535 69.7394 22.371V20.094H74.7554V36H69.7394V33.756C69.2994 34.548 68.6174 35.197 67.6934 35.703C66.7914 36.187 65.7904 36.429 64.6904 36.429ZM66.1424 32.238C67.3524 32.238 68.2874 31.842 68.9474 31.05C69.6074 30.258 69.9374 29.257 69.9374 28.047C69.9374 26.859 69.6074 25.869 68.9474 25.077C68.2874 24.285 67.3524 23.889 66.1424 23.889C64.9984 23.889 64.0744 24.274 63.3704 25.044C62.6884 25.814 62.3474 26.815 62.3474 28.047C62.3474 29.279 62.6884 30.291 63.3704 31.083C64.0744 31.853 64.9984 32.238 66.1424 32.238ZM85.3162 36.495C83.0282 36.495 81.2022 36 79.8382 35.01C78.4742 34.02 77.7922 32.755 77.7922 31.215H82.8082C82.8082 31.765 83.0502 32.216 83.5342 32.568C84.0182 32.92 84.6452 33.096 85.4152 33.096C85.9652 33.096 86.4052 32.964 86.7352 32.7C87.0872 32.436 87.2632 32.073 87.2632 31.611C87.2632 30.885 86.8782 30.434 86.1082 30.258L82.2142 29.268C80.9162 28.938 79.9262 28.377 79.2442 27.585C78.5622 26.793 78.2212 25.825 78.2212 24.681C78.2212 23.185 78.8372 21.975 80.0692 21.051C81.3012 20.105 82.9512 19.632 85.0192 19.632C87.3072 19.632 89.0562 20.072 90.2662 20.952C91.4982 21.832 92.1142 23.042 92.1142 24.582H87.1312C87.1312 24.032 86.9332 23.603 86.5372 23.295C86.1632 22.987 85.6352 22.833 84.9532 22.833C84.4032 22.833 83.9632 22.954 83.6332 23.196C83.3032 23.438 83.1382 23.757 83.1382 24.153C83.1382 24.857 83.5892 25.33 84.4912 25.572L88.2532 26.595C89.5072 26.925 90.4862 27.475 91.1902 28.245C91.9162 28.993 92.2792 29.917 92.2792 31.017C92.2792 32.667 91.6522 33.998 90.3982 35.01C89.1662 36 87.4722 36.495 85.3162 36.495ZM108.285 12.9H114.192L102.741 36H96.8009L101.091 27.288L92.9069 12.9H99.1109L104.028 22.008L108.285 12.9ZM118.734 36.429C116.424 36.429 114.598 35.648 113.256 34.086C111.914 32.524 111.243 30.511 111.243 28.047C111.243 25.627 111.936 23.625 113.322 22.041C114.708 20.457 116.534 19.665 118.8 19.665C119.922 19.665 120.923 19.907 121.803 20.391C122.683 20.875 123.343 21.535 123.783 22.371V20.094H128.799V36H123.783V33.756C123.343 34.548 122.661 35.197 121.737 35.703C120.835 36.187 119.834 36.429 118.734 36.429ZM120.186 32.238C121.396 32.238 122.331 31.842 122.991 31.05C123.651 30.258 123.981 29.257 123.981 28.047C123.981 26.859 123.651 25.869 122.991 25.077C122.331 24.285 121.396 23.889 120.186 23.889C119.042 23.889 118.118 24.274 117.414 25.044C116.732 25.814 116.391 26.815 116.391 28.047C116.391 29.279 116.732 30.291 117.414 31.083C118.118 31.853 119.042 32.238 120.186 32.238Z" fill="white"/>
</svg>
